<mxfile host="app.diagrams.net" modified="2023-10-11T07:05:53.387Z" agent="Mozilla/5.0 (Macintosh; Intel Mac OS X 10_15_7) AppleWebKit/605.1.15 (KHTML, like Gecko) Version/16.6 Safari/605.1.15" etag="OxPF0txsc_JibHCFtgXp" version="22.0.4" type="device">
  <diagram name="Page-1" id="g1_yAomx_UEzNeh92aMA">
    <mxGraphModel dx="382" dy="291" grid="0" gridSize="10" guides="1" tooltips="1" connect="1" arrows="1" fold="1" page="0" pageScale="1" pageWidth="850" pageHeight="1100" math="0" shadow="0">
      <root>
        <mxCell id="0" />
        <mxCell id="1" parent="0" />
        <mxCell id="FYQQzrq8y5PuC6XAX41O-6" value="" style="sketch=0;outlineConnect=0;fontColor=#232F3E;gradientColor=none;fillColor=#232323;strokeColor=none;dashed=0;verticalLabelPosition=bottom;verticalAlign=top;align=center;html=1;fontSize=12;fontStyle=0;aspect=fixed;pointerEvents=1;shape=mxgraph.aws4.gear;" vertex="1" parent="1">
          <mxGeometry x="208" y="155" width="113" height="113" as="geometry" />
        </mxCell>
        <mxCell id="FYQQzrq8y5PuC6XAX41O-7" value="" style="ellipse;whiteSpace=wrap;html=1;fillColor=default;strokeColor=none;" vertex="1" parent="1">
          <mxGeometry x="224.5" y="171.5" width="80" height="80" as="geometry" />
        </mxCell>
        <mxCell id="FYQQzrq8y5PuC6XAX41O-8" value="" style="shape=image;html=1;verticalAlign=top;verticalLabelPosition=bottom;labelBackgroundColor=#ffffff;imageAspect=0;aspect=fixed;image=https://cdn1.iconfinder.com/data/icons/ionicons-sharp-vol-2/512/sync-sharp-128.png" vertex="1" parent="1">
          <mxGeometry x="234.5" y="181.5" width="60" height="60" as="geometry" />
        </mxCell>
      </root>
    </mxGraphModel>
  </diagram>
</mxfile>
